<svg width="120" height="120" viewBox="0 0 120 120" fill="none" xmlns="http://www.w3.org/2000/svg">
<circle cx="60" cy="60" r="13" stroke="#2B2730" stroke-width="4"/>
<circle cx="60" cy="60" r="58" stroke="#2B2730" stroke-width="4"/>
<path d="M104.669 66.7448C98.7697 71.8903 90.664 78.5069 82.4208 83.8258C78.2994 86.4851 74.1818 88.795 70.3177 90.4346C66.4319 92.0835 62.9284 93 60 93C57.0716 93 53.5681 92.0835 49.6823 90.4346C45.8182 88.795 41.7006 86.4851 37.5792 83.8258C29.336 78.5069 21.2303 71.8903 15.3315 66.7448C11.1838 63.1268 11.1838 56.8732 15.3315 53.2552C21.2303 48.1097 29.336 41.4931 37.5792 36.1742C41.7006 33.5149 45.8182 31.205 49.6823 29.5654C53.5681 27.9165 57.0716 27 60 27C62.9284 27 66.4319 27.9165 70.3177 29.5654C74.1818 31.205 78.2994 33.5149 82.4208 36.1742C90.664 41.4931 98.7697 48.1097 104.669 53.2552C108.816 56.8732 108.816 63.1268 104.669 66.7448Z" stroke="#2B2730" stroke-width="4"/>
</svg>
