<svg width="24" height="24" viewBox="0 0 24 24" fill="none" xmlns="http://www.w3.org/2000/svg">
<path d="M3 10.2V14.1875C3 16.8181 3 18.1334 3.59458 19.0984C3.92224 19.6301 4.36988 20.0778 4.90164 20.4054C5.86658 21 7.18189 21 9.8125 21H13.8C16.7998 21 18.2997 21 19.3511 20.2361C19.6907 19.9893 19.9893 19.6907 20.2361 19.3511C21 18.2997 21 16.7998 21 13.8V10.2C21 7.20021 21 5.70032 20.2361 4.64886C19.9893 4.30928 19.6907 4.01065 19.3511 3.76393C18.2997 3 16.7998 3 13.8 3H10.2C7.20021 3 5.70032 3 4.64886 3.76393C4.30928 4.01065 4.01065 4.30928 3.76393 4.64886C3 5.70032 3 7.20021 3 10.2Z" stroke="#2B2730" stroke-width="1.5"/>
<path fill-rule="evenodd" clip-rule="evenodd" d="M14.638 9.49555C14.2538 9.89017 14.2778 10.2119 14.2778 10.8986V11.9809H16.8333L16.3125 14.1455H14.2778V21H11.9444V14.1455H10V11.9809H11.9444V10.8986C11.9444 10.1423 12.0484 8.92591 12.9064 8.04465C13.8734 7.05154 15.0556 6.79439 17 7.15515V9.31974C15.4916 8.9381 14.8412 9.28681 14.638 9.49555Z" fill="#2B2730"/>
</svg>
