<svg width="94" height="26" viewBox="0 0 94 26" fill="none" xmlns="http://www.w3.org/2000/svg">
<path d="M15.192 5.308L6.792 25.06H2.376L5.448 18.244L0 5.308H4.584L7.68 13.684L10.752 5.308H15.192Z" fill="#2B2730"/>
<path d="M22.7721 18.892C21.4601 18.892 20.2761 18.612 19.2201 18.052C18.1801 17.492 17.3561 16.692 16.7481 15.652C16.1561 14.612 15.8601 13.396 15.8601 12.004C15.8601 10.628 16.1641 9.42 16.7721 8.38C17.3801 7.324 18.2121 6.516 19.2681 5.956C20.3241 5.396 21.5081 5.116 22.8201 5.116C24.1321 5.116 25.3161 5.396 26.3721 5.956C27.4281 6.516 28.2601 7.324 28.8681 8.38C29.4761 9.42 29.7801 10.628 29.7801 12.004C29.7801 13.38 29.4681 14.596 28.8441 15.652C28.2361 16.692 27.3961 17.492 26.3241 18.052C25.2681 18.612 24.0841 18.892 22.7721 18.892ZM22.7721 15.34C23.5561 15.34 24.2201 15.052 24.7641 14.476C25.3241 13.9 25.6041 13.076 25.6041 12.004C25.6041 10.932 25.3321 10.108 24.7881 9.532C24.2601 8.956 23.6041 8.668 22.8201 8.668C22.0201 8.668 21.3561 8.956 20.8281 9.532C20.3001 10.092 20.0361 10.916 20.0361 12.004C20.0361 13.076 20.2921 13.9 20.8041 14.476C21.3321 15.052 21.9881 15.34 22.7721 15.34Z" fill="#2B2730"/>
<path d="M31.1413 11.98C31.1413 10.604 31.3973 9.396 31.9093 8.356C32.4373 7.316 33.1493 6.516 34.0453 5.956C34.9413 5.396 35.9413 5.116 37.0453 5.116C37.9253 5.116 38.7253 5.3 39.4453 5.668C40.1813 6.036 40.7573 6.532 41.1733 7.156V0.939999H45.2773V18.7H41.1733V16.78C40.7893 17.42 40.2373 17.932 39.5173 18.316C38.8133 18.7 37.9893 18.892 37.0453 18.892C35.9413 18.892 34.9413 18.612 34.0453 18.052C33.1493 17.476 32.4373 16.668 31.9093 15.628C31.3973 14.572 31.1413 13.356 31.1413 11.98ZM41.1733 12.004C41.1733 10.98 40.8853 10.172 40.3093 9.58C39.7493 8.988 39.0613 8.692 38.2453 8.692C37.4293 8.692 36.7333 8.988 36.1573 9.58C35.5973 10.156 35.3173 10.956 35.3173 11.98C35.3173 13.004 35.5973 13.82 36.1573 14.428C36.7333 15.02 37.4293 15.316 38.2453 15.316C39.0613 15.316 39.7493 15.02 40.3093 14.428C40.8853 13.836 41.1733 13.028 41.1733 12.004Z" fill="#2B2730"/>
<path d="M54.3424 18.892C53.0304 18.892 51.8464 18.612 50.7904 18.052C49.7504 17.492 48.9264 16.692 48.3184 15.652C47.7264 14.612 47.4304 13.396 47.4304 12.004C47.4304 10.628 47.7344 9.42 48.3424 8.38C48.9504 7.324 49.7824 6.516 50.8384 5.956C51.8944 5.396 53.0784 5.116 54.3904 5.116C55.7024 5.116 56.8864 5.396 57.9424 5.956C58.9984 6.516 59.8304 7.324 60.4384 8.38C61.0464 9.42 61.3504 10.628 61.3504 12.004C61.3504 13.38 61.0384 14.596 60.4144 15.652C59.8064 16.692 58.9664 17.492 57.8944 18.052C56.8384 18.612 55.6544 18.892 54.3424 18.892ZM54.3424 15.34C55.1264 15.34 55.7904 15.052 56.3344 14.476C56.8944 13.9 57.1744 13.076 57.1744 12.004C57.1744 10.932 56.9024 10.108 56.3584 9.532C55.8304 8.956 55.1744 8.668 54.3904 8.668C53.5904 8.668 52.9264 8.956 52.3984 9.532C51.8704 10.092 51.6064 10.916 51.6064 12.004C51.6064 13.076 51.8624 13.9 52.3744 14.476C52.9024 15.052 53.5584 15.34 54.3424 15.34Z" fill="#2B2730"/>
<path d="M67.6316 7.54C68.1116 6.804 68.7116 6.228 69.4316 5.812C70.1516 5.38 70.9516 5.164 71.8316 5.164V9.508H70.7036C69.6796 9.508 68.9116 9.732 68.3996 10.18C67.8876 10.612 67.6316 11.38 67.6316 12.484V18.7H63.5276V5.308H67.6316V7.54Z" fill="#2B2730"/>
<path d="M72.9772 11.98C72.9772 10.604 73.2332 9.396 73.7452 8.356C74.2732 7.316 74.9852 6.516 75.8812 5.956C76.7772 5.396 77.7772 5.116 78.8812 5.116C79.8252 5.116 80.6492 5.308 81.3532 5.692C82.0732 6.076 82.6252 6.58 83.0092 7.204V5.308H87.1133V18.7H83.0092V16.804C82.6092 17.428 82.0493 17.932 81.3293 18.316C80.6253 18.7 79.8012 18.892 78.8572 18.892C77.7692 18.892 76.7772 18.612 75.8812 18.052C74.9852 17.476 74.2732 16.668 73.7452 15.628C73.2332 14.572 72.9772 13.356 72.9772 11.98ZM83.0092 12.004C83.0092 10.98 82.7212 10.172 82.1452 9.58C81.5852 8.988 80.8973 8.692 80.0813 8.692C79.2653 8.692 78.5692 8.988 77.9932 9.58C77.4332 10.156 77.1533 10.956 77.1533 11.98C77.1533 13.004 77.4332 13.82 77.9932 14.428C78.5692 15.02 79.2653 15.316 80.0813 15.316C80.8973 15.316 81.5852 15.02 82.1452 14.428C82.7212 13.836 83.0092 13.028 83.0092 12.004Z" fill="#2B2730"/>
<circle cx="91.0244" cy="17.2" r="2" fill="#FFB84C"/>
</svg>
